<?xml version="1.0" encoding="UTF-8" standalone="no"?>
<svg
   xmlns:dc="http://purl.org/dc/elements/1.1/"
   xmlns:cc="http://creativecommons.org/ns#"
   xmlns:rdf="http://www.w3.org/1999/02/22-rdf-syntax-ns#"
   xmlns:svg="http://www.w3.org/2000/svg"
   xmlns="http://www.w3.org/2000/svg"
   xmlns:xlink="http://www.w3.org/1999/xlink"
   xmlns:sodipodi="http://sodipodi.sourceforge.net/DTD/sodipodi-0.dtd"
   xmlns:inkscape="http://www.inkscape.org/namespaces/inkscape"
   id="svg"
   width="100%"
   height="100%"
   version="1.1"
   viewBox="0 0 22 22"
   sodipodi:docname="notification.svg"
   inkscape:version="0.92.4 (5da689c313, 2019-01-14)">
  <metadata
     id="metadata35">
    <rdf:RDF>
      <cc:Work
         rdf:about="">
        <dc:format>image/svg+xml</dc:format>
        <dc:type
           rdf:resource="http://purl.org/dc/dcmitype/StillImage" />
      </cc:Work>
    </rdf:RDF>
  </metadata>
  <sodipodi:namedview
     pagecolor="#ffffff"
     bordercolor="#666666"
     borderopacity="1"
     objecttolerance="10"
     gridtolerance="10"
     guidetolerance="10"
     inkscape:pageopacity="0"
     inkscape:pageshadow="2"
     inkscape:window-width="640"
     inkscape:window-height="480"
     id="namedview33"
     showgrid="false"
     inkscape:zoom="5.3636364"
     inkscape:cx="12.731988"
     inkscape:cy="9.003484"
     inkscape:current-layer="svg" />
  <defs
     id="defs81">
    <style
       id="current-color-scheme"
       type="text/css">
   .ColorScheme-Text { color:#d3dae3; } .ColorScheme-Highlight { color:#5294e2; } .ColorScheme-ButtonBackground { color:#d3dae3; }
  </style>
    <linearGradient
       id="linearGradient5399"
       x1="317.917"
       x2="317.917"
       y1="909.772"
       y2="912.772"
       gradientUnits="userSpaceOnUse"
       xlink:href="#linearGradient4254" />
    <linearGradient
       id="linearGradient4254">
      <stop
         id="stop4256"
         offset="0"
         style="stop-color:#888888;stop-opacity:1" />
      <stop
         id="stop4258"
         offset="1"
         style="stop-color:#232323;stop-opacity:1" />
    </linearGradient>
  </defs>
  <g
     id="notification-active">
    <rect
       id="rect3068"
       width="22"
       height="22"
       x="0"
       y="40"
       style="opacity:0;fill:currentColor;fill-opacity:0.94117647;stroke:none" />
    <path
       id="path4238"
       class="ColorScheme-Highlight"
       d="m 11,43 c -4.418278,0 -8,3.581722 -8,8 0,4.418278 3.581722,8 8,8 4.418278,0 8,-3.581722 8,-8 0,-4.418278 -3.581722,-8 -8,-8 z"
       style="opacity:1;fill:#315bef;fill-opacity:1;fill-rule:nonzero;stroke:none;stroke-width:1;stroke-linecap:round;stroke-linejoin:round;stroke-miterlimit:4;stroke-dasharray:none;stroke-dashoffset:0;stroke-opacity:1" />
    <path
       id="path4173-0"
       class="ColorScheme-Text"
       d="M 10 47 L 10 53 L 12 53 L 12 47 L 10 47 z M 11 54 C 10.546848 54 10 54.518427 10 54.980469 C 10 55.442512 10.546848 56 11 56 C 11.453152 56 12 55.442512 12 54.980469 C 12 54.518427 11.453152 54 11 54 z"
       style="opacity:1;fill:#fbfcfd;fill-opacity:0.94117647;stroke:none" />
  </g>
  <path
     id="expander-bottom"
     class="ColorScheme-Text"
     d="m -18,23 2,-2 2,2 z"
     style="fill:currentColor;fill-opacity:1;opacity:1" />
  <path
     id="expander-top"
     class="ColorScheme-Text"
     d="m -18,17 2,2 2,-2 z"
     style="fill:currentColor;fill-opacity:1;opacity:1" />
  <path
     id="expander-right"
     class="ColorScheme-Text"
     d="m -13,18 -2,2 2,2 z"
     style="fill:currentColor;fill-opacity:1;opacity:1" />
  <path
     id="expander-left"
     class="ColorScheme-Text"
     d="m -19,18 2,2 -2,2 z"
     style="fill:currentColor;fill-opacity:1;opacity:1" />
  <g
     id="notification-inactive">
    <rect
       id="rect3028"
       class="ColorScheme-Text"
       width="22"
       height="22"
       x="0"
       y="0"
       style="fill:currentColor;fill-opacity:0;stroke:none" />
    <g
       id="g4185">
      <path
         id="path4163"
         class="ColorScheme-Text"
         d="M 11 3 A 8 8 0 0 0 3 11 A 8 8 0 0 0 11 19 A 8 8 0 0 0 19 11 A 8 8 0 0 0 11 3 z M 11 5 A 6 6 0 0 1 17 11 A 6 6 0 0 1 11 17 A 6 6 0 0 1 5 11 A 6 6 0 0 1 11 5 z M 10 6 L 10 12 L 12 12 L 12 6 L 10 6 z M 11 13 C 10.546848 13 10 13.518427 10 13.980469 C 10 14.442512 10.546848 15 11 15 C 11.453152 15 12 14.442512 12 13.980469 C 12 13.518427 11.453152 13 11 13 z"
         style="opacity:1;fill:currentColor;fill-opacity:1;fill-rule:nonzero;stroke:none;stroke-width:1;stroke-linecap:round;stroke-linejoin:round;stroke-miterlimit:4;stroke-dasharray:none;stroke-dashoffset:0;stroke-opacity:1" />
    </g>
  </g>
  <g
     id="notification-disabled">
    <rect
       id="rect3022"
       width="22"
       height="22"
       x="0"
       y="-40"
       style="fill:currentColor;fill-opacity:0.94117647;stroke:none;opacity:0" />
    <path
       id="path4196"
       class="ColorScheme-Text"
       d="M 11 -37 A 8 8 0 0 0 3 -29 A 8 8 0 0 0 11 -21 A 8 8 0 0 0 19 -29 A 8 8 0 0 0 11 -37 z M 11 -35 A 6 6 0 0 1 17 -29 A 6 6 0 0 1 11 -23 A 6 6 0 0 1 5 -29 A 6 6 0 0 1 11 -35 z M 10 -34 L 10 -28 L 12 -28 L 12 -34 L 10 -34 z M 11 -27 C 10.546848 -27 10 -26.481573 10 -26.019531 C 10 -25.557488 10.546848 -25 11 -25 C 11.453152 -25 12 -25.557488 12 -26.019531 C 12 -26.481573 11.453152 -27 11 -27 z"
       style="opacity:0.3;fill:currentColor;fill-opacity:1;fill-rule:nonzero;stroke:none;stroke-width:1;stroke-linecap:round;stroke-linejoin:round;stroke-miterlimit:4;stroke-dasharray:none;stroke-dashoffset:0;stroke-opacity:1" />
  </g>
  <g
     id="notification-empty">
    <rect
       id="rect3798"
       width="22"
       height="22"
       x="40"
       y="-40"
       style="fill:currentColor;fill-opacity:0.94117647;stroke:none;opacity:0" />
    <path
       id="path4226"
       class="ColorScheme-Text"
       d="m 51,-37 a 8,8 0 0 0 -8,8 8,8 0 0 0 8,8 8,8 0 0 0 8,-8 8,8 0 0 0 -8,-8 z m 0,2 a 6,6 0 0 1 6,6 6,6 0 0 1 -6,6 6,6 0 0 1 -6,-6 6,6 0 0 1 6,-6 z"
       style="opacity:1;fill:currentColor;fill-opacity:1;fill-rule:nonzero;stroke:none;stroke-width:1;stroke-linecap:round;stroke-linejoin:round;stroke-miterlimit:4;stroke-dasharray:none;stroke-dashoffset:0;stroke-opacity:1" />
  </g>
  <g
     id="notification-progress-active">
    <rect
       id="rect3009"
       width="22"
       height="22"
       x="40"
       y="0"
       style="fill:currentColor;fill-opacity:0.94117647;stroke:none;opacity:0" />
    <path
       id="path4233"
       class="ColorScheme-Highlight"
       d="m 51,2.9999999 c -4.418278,0 -8,3.5817221 -8,8.0000001 0,4.418278 3.581722,8 8,8 4.418278,0 8,-3.581722 8,-8 0,-4.418278 -3.581722,-8.0000001 -8,-8.0000001 z"
       style="opacity:1;fill:#315bef;fill-opacity:1;fill-rule:nonzero;stroke:none;stroke-width:1;stroke-linecap:round;stroke-linejoin:round;stroke-miterlimit:4;stroke-dasharray:none;stroke-dashoffset:0;stroke-opacity:1" />
  </g>
  <g
     id="notification-progress-inactive">
    <rect
       id="rect3060"
       width="22"
       height="22"
       x="40"
       y="40"
       style="fill:currentColor;fill-opacity:0.94117647;stroke:none;opacity:0" />
    <path
       id="path4241"
       class="ColorScheme-Text"
       d="m 51,43 c -4.418278,0 -8,3.581722 -8,8 0,4.418278 3.581722,8 8,8 4.418278,0 8,-3.581722 8,-8 0,-4.418278 -3.581722,-8 -8,-8 z"
       style="opacity:0.3;fill:currentColor;fill-opacity:1;fill-rule:nonzero;stroke:none;stroke-width:1;stroke-linecap:round;stroke-linejoin:round;stroke-miterlimit:4;stroke-dasharray:none;stroke-dashoffset:0;stroke-opacity:1" />
  </g>
</svg>
