<?xml version="1.0" encoding="UTF-8" standalone="no"?>
<svg
   xmlns:dc="http://purl.org/dc/elements/1.1/"
   xmlns:cc="http://creativecommons.org/ns#"
   xmlns:rdf="http://www.w3.org/1999/02/22-rdf-syntax-ns#"
   xmlns:svg="http://www.w3.org/2000/svg"
   xmlns="http://www.w3.org/2000/svg"
   xmlns:sodipodi="http://sodipodi.sourceforge.net/DTD/sodipodi-0.dtd"
   xmlns:inkscape="http://www.inkscape.org/namespaces/inkscape"
   id="svg4143"
   width="22"
   height="22"
   version="1.1"
   viewBox="0 0 22 22"
   sodipodi:docname="update.svg"
   inkscape:version="0.92.4 (5da689c313, 2019-01-14)">
  <metadata
     id="metadata23">
    <rdf:RDF>
      <cc:Work
         rdf:about="">
        <dc:format>image/svg+xml</dc:format>
        <dc:type
           rdf:resource="http://purl.org/dc/dcmitype/StillImage" />
      </cc:Work>
    </rdf:RDF>
  </metadata>
  <sodipodi:namedview
     pagecolor="#ffffff"
     bordercolor="#666666"
     borderopacity="1"
     objecttolerance="10"
     gridtolerance="10"
     guidetolerance="10"
     inkscape:pageopacity="0"
     inkscape:pageshadow="2"
     inkscape:window-width="640"
     inkscape:window-height="480"
     id="namedview21"
     showgrid="false"
     inkscape:zoom="10.727273"
     inkscape:cx="66.512712"
     inkscape:cy="8.8559322"
     inkscape:current-layer="svg4143" />
  <defs
     id="defs4157">
    <style
       id="current-color-scheme"
       type="text/css">
   .ColorScheme-Text { color:#d3dae3; } .ColorScheme-Highlight { color:#5294e2; } .ColorScheme-ButtonBackground { color:#d3dae3; }
  </style>
  </defs>
  <g
     id="layer1"
     transform="translate(0,-1030.3622)">
    <g
       id="update-none"
       transform="translate(46.529079,1.688616)">
      <rect
         id="rect4136"
         width="22"
         height="22"
         x="-46.53"
         y="1028.67"
         style="opacity:0.001;fill:#000000;fill-opacity:1;fill-rule:nonzero;stroke:none;stroke-width:2;stroke-linecap:round;stroke-linejoin:round;stroke-miterlimit:4;stroke-dasharray:none;stroke-opacity:1" />
      <path
         id="path4"
         class="ColorScheme-Text"
         d="m -35.529081,1031.6736 c -4.4183,0 -8,3.5817 -8,8 0,4.418 3.5817,8 8,8 4.418,0 8,-3.582 8,-8 0,-4.4183 -3.582,-8 -8,-8 z m 3.385,4.582 c 0.083,0 0.165,0.032 0.228,0.096 l 0.955,0.9551 c 0.128,0.1274 0.128,0.3317 0,0.459 l -4.185,4.1852 -1.012,1.012 -0.057,0.057 c -0.095,0.095 -0.25,0.095 -0.3452,0 l -0.0567,-0.057 -0.9551,-0.955 -2.8847,-2.885 c -0.0955,-0.095 -0.0955,-0.25 0,-0.345 l 1.0683,-1.0688 c 0.0955,-0.096 0.2502,-0.096 0.3457,0 l 2.6567,2.6558 4.011,-4.0133 c 0.064,-0.064 0.148,-0.096 0.231,-0.096 z"
         style="fill:currentColor;fill-opacity:1" />
    </g>
    <g
       id="update-low"
       transform="translate(24,1.7382813e-5)">
      <rect
         id="rect4725"
         width="22"
         height="22"
         x="0"
         y="1030.36"
         style="opacity:0.001;fill:#000000;fill-opacity:1;fill-rule:nonzero;stroke:none;stroke-width:2;stroke-linecap:round;stroke-linejoin:round;stroke-miterlimit:4;stroke-dasharray:none;stroke-opacity:1" />
      <path
         id="path6"
         class="ColorScheme-Text"
         d="m 11,1033.3622 c -4.4183,0 -8,3.5817 -8,8 0,4.418 3.5817,8 8,8 4.418,0 8,-3.582 8,-8 0,-4.4183 -3.582,-8 -8,-8 z m -1,3 2,0 0,5 3,0 -4,5 -4,-5 3,0 0,-5 z"
         style="fill:currentColor;fill-opacity:1" />
      <circle
         id="circle8"
         class="ColorScheme-Highlight"
         cx="20"
         cy="1048.362"
         r="2"
         style="fill:#315bef;fill-opacity:1" />
    </g>
    <g
       id="update-medium"
       transform="translate(48,1.7382813e-5)">
      <rect
         id="rect4744"
         width="22"
         height="22"
         x="0"
         y="1030.36"
         style="opacity:0.00100002;fill:#000000;fill-opacity:1;fill-rule:nonzero;stroke:none;stroke-width:2;stroke-linecap:round;stroke-linejoin:round;stroke-miterlimit:4;stroke-dasharray:none;stroke-opacity:1" />
      <path
         id="path4746"
         class="ColorScheme-Text"
         d="m 11,1033.3622 c -4.4183,0 -8,3.5817 -8,8 0,4.418 3.5817,8 8,8 4.418,0 8,-3.582 8,-8 0,-4.4183 -3.582,-8 -8,-8 z m -1,3 2,0 0,5 3,0 -4,5 -4,-5 3,0 0,-5 z"
         style="fill:currentColor;fill-opacity:1" />
      <circle
         id="circle4748"
         class="ColorScheme-Highlight"
         cx="20"
         cy="1048.362"
         r="2"
         style="fill:#315bef;fill-opacity:1" />
    </g>
    <g
       id="update-high"
       transform="translate(72,1.7382813e-5)">
      <rect
         id="rect4752"
         width="22"
         height="22"
         x="0"
         y="1030.36"
         style="opacity:0.00100002;fill:#000000;fill-opacity:1;fill-rule:nonzero;stroke:none;stroke-width:2;stroke-linecap:round;stroke-linejoin:round;stroke-miterlimit:4;stroke-dasharray:none;stroke-opacity:1" />
      <path
         id="path4754"
         class="ColorScheme-Text"
         d="m 11,1033.3622 c -4.4183,0 -8,3.5817 -8,8 0,4.418 3.5817,8 8,8 4.418,0 8,-3.582 8,-8 0,-4.4183 -3.582,-8 -8,-8 z m -1,3 2,0 0,5 3,0 -4,5 -4,-5 3,0 0,-5 z"
         style="fill:currentColor;fill-opacity:1" />
      <circle
         id="circle4756"
         class="ColorScheme-Highlight"
         cx="20"
         cy="1048.362"
         r="2"
         style="fill:#315bef;fill-opacity:1" />
    </g>
  </g>
</svg>
