<?xml version="1.0" encoding="UTF-8" standalone="no"?>
<svg
   xmlns:dc="http://purl.org/dc/elements/1.1/"
   xmlns:cc="http://creativecommons.org/ns#"
   xmlns:rdf="http://www.w3.org/1999/02/22-rdf-syntax-ns#"
   xmlns:svg="http://www.w3.org/2000/svg"
   xmlns="http://www.w3.org/2000/svg"
   xmlns:sodipodi="http://sodipodi.sourceforge.net/DTD/sodipodi-0.dtd"
   xmlns:inkscape="http://www.inkscape.org/namespaces/inkscape"
   width="22"
   height="22"
   version="1.1"
   viewBox="0 0 22 22"
   id="svg62"
   sodipodi:docname="media.svg"
   inkscape:version="0.92.4 (5da689c313, 2019-01-14)">
  <metadata
     id="metadata68">
    <rdf:RDF>
      <cc:Work
         rdf:about="">
        <dc:format>image/svg+xml</dc:format>
        <dc:type
           rdf:resource="http://purl.org/dc/dcmitype/StillImage" />
      </cc:Work>
    </rdf:RDF>
  </metadata>
  <defs
     id="defs66" />
  <sodipodi:namedview
     pagecolor="#ffffff"
     bordercolor="#666666"
     borderopacity="1"
     objecttolerance="10"
     gridtolerance="10"
     guidetolerance="10"
     inkscape:pageopacity="0"
     inkscape:pageshadow="2"
     inkscape:window-width="640"
     inkscape:window-height="480"
     id="namedview64"
     showgrid="false"
     inkscape:zoom="10.727273"
     inkscape:cx="-7.5042373"
     inkscape:cy="11"
     inkscape:current-layer="svg62" />
  <g
     id="media-record"
     transform="translate(22,-1030.36)">
    <rect
       style="opacity:0.00100002"
       width="22"
       height="22"
       x="0"
       y="1030.36"
       id="rect2" />
    <path
       style="fill:#315bef;fill-opacity:1"
       d="m 11,1035.3622 c -3.31104,0 -6,2.6888 -6,6 0,3.311 2.68896,6 6,6 3.31104,0 6,-2.689 6,-6 0,-3.3112 -2.68896,-6 -6,-6 z"
       id="path4" />
  </g>
  <g
     id="media-playback-stop"
     transform="translate(44,-1030.36)">
    <rect
       style="opacity:0.00100002"
       width="22"
       height="22"
       x="0"
       y="1030.36"
       id="rect7" />
    <path
       style="fill:#d3dae3"
       d="m 5,1035.3622 v 12 h 12 v -12 z"
       id="path9" />
  </g>
  <g
     id="media-skip-forward"
     transform="translate(66,-1030.36)">
    <rect
       style="opacity:0.00100002"
       width="22"
       height="22"
       x="0"
       y="1030.36"
       id="rect12" />
    <path
       style="fill:#d3dae3"
       d="m 19,1037.3622 v 8 h -2 v -4 -4 z m -2,4 -7,4 v -4 -4 z m -7,0 -7,4 v -8 z"
       id="path14" />
  </g>
  <g
     id="media-skip-backward"
     transform="matrix(-1,0,0,1,110,-1030.36)">
    <rect
       style="opacity:0.00100002"
       width="22"
       height="22"
       x="0"
       y="1030.36"
       id="rect17" />
    <path
       style="fill:#d3dae3"
       d="m 19,1037.3622 v 8 h -2 v -4 -4 z m -2,4 -7,4 v -4 -4 z m -7,0 -7,4 v -8 z"
       id="path19" />
  </g>
  <g
     id="media-seek-forward"
     transform="translate(110,-1030.36)">
    <rect
       style="opacity:0.00100002"
       width="22"
       height="22"
       x="0"
       y="1030.36"
       id="rect22" />
    <path
       style="fill:#d3dae3"
       d="m 11.000002,1037.3622 6.999997,4 -6.999997,4 v -4 z m 0,4 -7.0000007,4 v -8 z"
       id="path24" />
  </g>
  <g
     id="media-seek-backward"
     transform="matrix(-1,0,0,1,154,-1030.36)">
    <rect
       style="opacity:0.00100002"
       width="22"
       height="22"
       x="0"
       y="1030.36"
       id="rect27" />
    <path
       style="fill:#d3dae3"
       d="m 11.000002,1037.3622 6.999997,4 -6.999997,4 v -4 z m 0,4 -7.0000007,4 v -8 z"
       id="path29" />
  </g>
  <g
     id="media-eject"
     transform="translate(-44,-1030.36)">
    <rect
       style="opacity:0.00100002"
       width="22"
       height="22"
       x="0"
       y="1030.36"
       id="rect32" />
    <path
       style="display:block;fill:#d3dae3"
       d="m 11,1036.3622 -5,5 v 1 h 10 v -1 z m -5,8 v 2 h 10 v -2 z"
       display="block"
       id="path34" />
  </g>
  <g
     id="media-playback-pause"
     transform="translate(-22,-1030.36)">
    <rect
       style="opacity:0.00100002"
       width="22"
       height="22"
       x="0"
       y="1030.36"
       id="rect37" />
    <path
       style="fill:#d3dae3"
       d="m 5,1035.3622 v 12 h 4 v -12 z m 8,0 v 12 h 4 v -12 z"
       id="path39" />
  </g>
  <g
     id="media-playback-start"
     transform="translate(0,-1030.36)">
    <rect
       style="opacity:0.00100002"
       width="22"
       height="22"
       x="0"
       y="1030.36"
       id="rect42" />
    <path
       style="fill:#d3dae3"
       d="m 6,1035.3622 v 12 l 11,-6 -9.8992,-5.3996 z"
       id="path44" />
  </g>
  <g
     id="media-playback-stopped"
     transform="translate(44,-1008.36)">
    <rect
       width="22"
       height="22"
       x="0"
       y="1030.36"
       style="opacity:0.00100002"
       id="rect47" />
    <path
       d="m 5,1035.3622 v 12 h 12 v -12 z"
       style="fill:#d3dae3"
       id="path49" />
  </g>
  <g
     id="media-playback-paused"
     transform="translate(-22,-1008.36)">
    <rect
       width="22"
       height="22"
       x="0"
       y="1030.36"
       style="opacity:0.00100002"
       id="rect52" />
    <path
       d="m 5,1035.3622 v 12 h 4 v -12 z m 8,0 v 12 h 4 v -12 z"
       style="fill:#d3dae3"
       id="path54" />
  </g>
  <g
     id="media-playback-playing"
     transform="translate(0,-1008.36)">
    <rect
       width="22"
       height="22"
       x="0"
       y="1030.36"
       style="opacity:0.00100002"
       id="rect57" />
    <path
       d="m 6,1035.3622 v 12 l 11,-6 -9.8992,-5.3996 z"
       style="fill:#d3dae3"
       id="path59" />
  </g>
</svg>
