<?xml version="1.0" encoding="UTF-8" standalone="no"?>
<svg
   xmlns:dc="http://purl.org/dc/elements/1.1/"
   xmlns:cc="http://creativecommons.org/ns#"
   xmlns:rdf="http://www.w3.org/1999/02/22-rdf-syntax-ns#"
   xmlns:svg="http://www.w3.org/2000/svg"
   xmlns="http://www.w3.org/2000/svg"
   xmlns:sodipodi="http://sodipodi.sourceforge.net/DTD/sodipodi-0.dtd"
   xmlns:inkscape="http://www.inkscape.org/namespaces/inkscape"
   width="55"
   height="32"
   version="1.1"
   viewBox="0 0 55 32"
   id="svg31"
   sodipodi:docname="plasmavault-error.svg"
   inkscape:version="0.92.4 (5da689c313, 2019-01-14)">
  <metadata
     id="metadata37">
    <rdf:RDF>
      <cc:Work
         rdf:about="">
        <dc:format>image/svg+xml</dc:format>
        <dc:type
           rdf:resource="http://purl.org/dc/dcmitype/StillImage" />
      </cc:Work>
    </rdf:RDF>
  </metadata>
  <defs
     id="defs35" />
  <sodipodi:namedview
     pagecolor="#ffffff"
     bordercolor="#666666"
     borderopacity="1"
     objecttolerance="10"
     gridtolerance="10"
     guidetolerance="10"
     inkscape:pageopacity="0"
     inkscape:pageshadow="2"
     inkscape:window-width="640"
     inkscape:window-height="480"
     id="namedview33"
     showgrid="false"
     inkscape:zoom="7.375"
     inkscape:cx="-26.330508"
     inkscape:cy="16"
     inkscape:current-layer="svg31" />
  <g
     id="layer1"
     transform="translate(0,-1020.3622)">
    <g
       id="22-22-plasmavault-error"
       transform="translate(-347,1287.3622)"
       style="enable-background:new">
      <rect
         width="22"
         height="22"
         x="347"
         y="-257"
         style="opacity:0;fill:#2b0000;fill-opacity:0.40392157"
         id="rect2" />
      <path
         d="m 357.99758,-254.00336 c -5.00262,-0.003 -4.99999,4.64286 -4.99999,4.64286 l 0,2.35714 -0.83333,0 c -0.64633,0 -1.16667,0.36686 -1.16667,1 l 0,6.85714 c 0,0.63315 0.52034,1.14286 1.16667,1.14286 l 11.66666,0 c 0.64633,0 1.16667,-0.50971 1.16667,-1.14286 l 0,-6.85714 c 0,-0.63314 -0.52963,-0.89079 -1.16667,-1 l -0.83333,0 0,-2.35714 c 0,0 0.003,-4.6395 -5.00001,-4.64286 z m 0,3 c 2.00262,-0.003 2.00001,1.57143 2.00001,1.57143 l 0,2.42857 -4,0 0,-2.42857 c 0,0 0.003,-1.56807 1.99999,-1.57143 z"
         style="fill:#da4453;fill-opacity:1"
         id="path4" />
    </g>
    <g
       id="plasmavault-error">
      <rect
         width="32"
         height="32"
         x="23"
         y="1020.36"
         style="opacity:0.00100002"
         id="rect7" />
      <path
         d="m 39,1022.3622 c -4.432,0 -8,3.568 -8,8 l 0,3 3,0 0,-3 c 0,-2.77 2.23,-5 5,-5 2.77,0 5,2.23 5,5 l 0,3 3,0 0,-3 c 0,-4.432 -3.568,-8 -8,-8 z"
         style="fill:#d2d2d2"
         id="path9" />
      <rect
         width="17"
         height="22"
         x="-1050.36"
         y="-50"
         rx="1.4"
         ry="1.4"
         transform="matrix(0,-1,-1,0,0,0)"
         style="fill:#f73f3f"
         id="rect11" />
      <path
         d="m 39,1022.3622 c -4.432,0 -8,3.568 -8,8 l 0,1 c 0,-4.432 3.568,-8 8,-8 4.432,0 8,3.568 8,8 l 0,-1 c 0,-4.432 -3.568,-8 -8,-8 z"
         style="opacity:0.1;fill:#ffffff"
         id="path13" />
      <path
         d="m 29.4004,1033.3622 c -0.7756,0 -1.4004,0.625 -1.4004,1.4 l 0,1 c 0,-0.775 0.6248,-1.4 1.4004,-1.4 l 19.2,0 c 0.775,0 1.4,0.625 1.4,1.4 l 0,-1 c 0,-0.775 -0.625,-1.4 -1.4,-1.4 l -19.2,0 z"
         style="opacity:0.1;fill:#ffffff"
         id="path15" />
      <path
         d="m 28,1047.9622 0,1 c 0,0.775 0.6248,1.4 1.4004,1.4 l 19.2,0 c 0.775,0 1.4,-0.625 1.4,-1.4 l 0,-1 c 0,0.775 -0.625,1.4 -1.4,1.4 l -19.2,0 c -0.7752,0 -1.4,-0.625 -1.4,-1.4 z"
         style="fill:#cf2626"
         id="path17" />
      <path
         d="m 28,1046.9622 0,1 c 0,0.775 0.6248,1.4 1.4004,1.4 l 19.2,0 c 0.775,0 1.4,-0.625 1.4,-1.4 l 0,-1 c 0,0.775 -0.625,1.4 -1.4,1.4 l -19.2,0 c -0.7752,0 -1.4,-0.625 -1.4,-1.4 z"
         style="opacity:0.1;fill:#ffffff"
         id="path19" />
      <rect
         width="22"
         height="10"
         x="28"
         y="1036.36"
         rx="0"
         ry="0"
         style="fill:#fe6a6a"
         id="rect21" />
      <path
         d="m 39,1025.3622 c -2.77,0 -5,2.23 -5,5 l 0,1 c 0,-2.77 2.23,-5 5,-5 2.77,0 5,2.23 5,5 l 0,-1 c 0,-2.77 -2.23,-5 -5,-5 z m -11,23.6 0,1 c 0,0.775 0.6248,1.4 1.4004,1.4 l 19.2,0 c 0.775,0 1.4,-0.625 1.4,-1.4 l 0,-1 c 0,0.775 -0.625,1.4 -1.4,1.4 l -19.2,0 c -0.7752,0 -1.4,-0.625 -1.4,-1.4 z"
         style="opacity:0.2"
         id="path23" />
      <path
         d="m 38,1038.3622 0,5 2,0 0,-5 -2,0 z m 1,6 a 1,1 0 0 0 -1,1 1,1 0 0 0 1,1 1,1 0 0 0 1,-1 1,1 0 0 0 -1,-1 z"
         style="opacity:0.2"
         id="path25" />
      <path
         d="m 38,1037.3622 0,5 2,0 0,-5 -2,0 z m 1,6 a 1,1 0 0 0 -1,1 1,1 0 0 0 1,1 1,1 0 0 0 1,-1 1,1 0 0 0 -1,-1 z"
         style="fill:#ffffff"
         id="path27" />
    </g>
  </g>
</svg>
