<?xml version="1.0" encoding="UTF-8" standalone="no"?>
<svg
   xmlns:dc="http://purl.org/dc/elements/1.1/"
   xmlns:cc="http://creativecommons.org/ns#"
   xmlns:rdf="http://www.w3.org/1999/02/22-rdf-syntax-ns#"
   xmlns:svg="http://www.w3.org/2000/svg"
   xmlns="http://www.w3.org/2000/svg"
   xmlns:sodipodi="http://sodipodi.sourceforge.net/DTD/sodipodi-0.dtd"
   xmlns:inkscape="http://www.inkscape.org/namespaces/inkscape"
   width="22"
   height="22"
   version="1.1"
   viewBox="0 0 22 22"
   id="svg53"
   sodipodi:docname="software.svg"
   inkscape:version="0.92.4 (5da689c313, 2019-01-14)">
  <metadata
     id="metadata59">
    <rdf:RDF>
      <cc:Work
         rdf:about="">
        <dc:format>image/svg+xml</dc:format>
        <dc:type
           rdf:resource="http://purl.org/dc/dcmitype/StillImage" />
      </cc:Work>
    </rdf:RDF>
  </metadata>
  <defs
     id="defs57" />
  <sodipodi:namedview
     pagecolor="#ffffff"
     bordercolor="#666666"
     borderopacity="1"
     objecttolerance="10"
     gridtolerance="10"
     guidetolerance="10"
     inkscape:pageopacity="0"
     inkscape:pageshadow="2"
     inkscape:window-width="640"
     inkscape:window-height="480"
     id="namedview55"
     showgrid="false"
     inkscape:zoom="10.727273"
     inkscape:cx="54.860169"
     inkscape:cy="7.9237288"
     inkscape:current-layer="svg53" />
  <g
     id="software-updates-updates"
     transform="translate(27,0)">
    <rect
       width="22"
       height="22"
       x="0"
       y="0"
       style="opacity:0;fill:#7a0000"
       id="rect2" />
    <path
       d="M 10.761719,3.0136719 A 8,8 0 0 0 4.0722656,7 8,8 0 0 0 5.3984375,16.703125 L 6.4433594,14.892578 A 6,6 0 0 1 5.8046875,8 6,6 0 0 1 12.09375,5.1074219 L 13.134766,3.3027344 A 8,8 0 0 0 10.761719,3.0136719 Z"
       style="fill:#d3dae3"
       id="path4" />
    <path
       d="M 16.601562,5.296875 15.556641,7.1074219 A 6,6 0 0 1 16.195312,14 6,6 0 0 1 9.90625,16.892578 L 8.8652344,18.697266 A 8,8 0 0 0 17.927734,15 8,8 0 0 0 16.601562,5.296875 Z"
       style="fill:#d3dae3"
       id="path6" />
    <path
       d="m 10,7 0,5 2,0 0,-5 -2,0 z"
       style="fill:#315bef;fill-opacity:1"
       id="path8" />
    <path
       d="m 11,13 a 1,1 0 0 0 -1,1 1,1 0 0 0 1,1 1,1 0 0 0 1,-1 1,1 0 0 0 -1,-1 z"
       style="fill:#315bef;fill-opacity:1"
       id="path10" />
  </g>
  <g
     id="software-updates-additional">
    <rect
       width="22"
       height="22"
       x="0"
       y="0"
       style="opacity:0;fill:#7a0000"
       id="rect13" />
    <path
       d="M 10.761719,3.0136719 A 8,8 0 0 0 4.072266,7 8,8 0 0 0 5.398438,16.703125 L 6.443359,14.892578 A 6,6 0 0 1 5.804688,8 6,6 0 0 1 12.09375,5.1074219 L 13.134766,3.3027344 A 8,8 0 0 0 10.761719,3.0136719 Z"
       style="fill:#d3dae3"
       id="path15" />
    <path
       d="M 16.601562,5.296875 15.556641,7.1074219 A 6,6 0 0 1 16.195312,14 6,6 0 0 1 9.90625,16.892578 L 8.865234,18.697266 A 8,8 0 0 0 17.927734,15 8,8 0 0 0 16.601562,5.296875 Z"
       style="fill:#d3dae3"
       id="path17" />
    <path
       d="M 8,10 A 1,1 0 0 0 7,11 1,1 0 0 0 8,12 1,1 0 0 0 9,11 1,1 0 0 0 8,10 Z"
       style="fill:#315bef;fill-opacity:1"
       id="path19" />
    <path
       d="m 11,10 a 1,1 0 0 0 -1,1 1,1 0 0 0 1,1 1,1 0 0 0 1,-1 1,1 0 0 0 -1,-1 z"
       style="fill:#315bef;fill-opacity:1"
       id="path21" />
    <path
       d="m 14,10 a 1,1 0 0 0 -1,1 1,1 0 0 0 1,1 1,1 0 0 0 1,-1 1,1 0 0 0 -1,-1 z"
       style="fill:#315bef;fill-opacity:1"
       id="path23" />
  </g>
  <g
     id="software-updates-security"
     transform="translate(54,0)">
    <rect
       width="22"
       height="22"
       x="0"
       y="0"
       style="opacity:0;fill:#7a0000"
       id="rect26" />
    <path
       d="M 10.761719,3.0136719 A 8,8 0 0 0 4.0722656,7 8,8 0 0 0 5.3984375,16.703125 L 6.4433594,14.892578 A 6,6 0 0 1 5.8046875,8 6,6 0 0 1 12.09375,5.1074219 L 13.134766,3.3027344 A 8,8 0 0 0 10.761719,3.0136719 Z"
       style="fill:#d3dae3"
       id="path28" />
    <path
       d="M 16.601562,5.296875 15.556641,7.1074219 A 6,6 0 0 1 16.195312,14 6,6 0 0 1 9.90625,16.892578 L 8.8652344,18.697266 A 8,8 0 0 0 17.927734,15 8,8 0 0 0 16.601562,5.296875 Z"
       style="fill:#d3dae3"
       id="path30" />
    <path
       d="m 10,7 0,5 2,0 0,-5 -2,0 z"
       style="fill:#315bef;fill-opacity:1"
       id="path32" />
    <path
       d="m 11,13 a 1,1 0 0 0 -1,1 1,1 0 0 0 1,1 1,1 0 0 0 1,-1 1,1 0 0 0 -1,-1 z"
       style="fill:#315bef;fill-opacity:1"
       id="path34" />
  </g>
  <g
     id="software-updates-inactive"
     transform="translate(82.3,0)">
    <rect
       width="22"
       height="22"
       x="0"
       y="0"
       style="opacity:0;fill:#7a0000"
       id="rect37" />
    <path
       d="M 66.0625,3.0136719 A 8,8 0 0 0 59.373047,7 a 8,8 0 0 0 1.326172,9.703125 l 1.044922,-1.810547 A 6,6 0 0 1 61.105469,8 6,6 0 0 1 67.394531,5.1074219 L 68.435547,3.3027344 A 8,8 0 0 0 66.0625,3.0136719 Z M 71.902344,5.296875 70.857422,7.1074219 A 6,6 0 0 1 71.496094,14 6,6 0 0 1 65.207031,16.892578 l -1.041015,1.804688 A 8,8 0 0 0 73.228516,15 8,8 0 0 0 71.902344,5.296875 Z"
       transform="translate(-55.3,0)"
       style="fill:#d3dae3"
       id="path39" />
  </g>
  <g
     id="software-updates-release"
     transform="translate(-22,0)">
    <rect
       width="22"
       height="22"
       x="0"
       y="0"
       style="opacity:0;fill:#7a0000"
       id="rect42" />
    <path
       d="M 10.761719,3.0136719 A 8,8 0 0 0 4.0722656,7 8,8 0 0 0 5.3984375,16.703125 L 6.4433594,14.892578 A 6,6 0 0 1 5.8046875,8 6,6 0 0 1 12.09375,5.1074219 L 13.134766,3.3027344 A 8,8 0 0 0 10.761719,3.0136719 Z"
       style="fill:#d3dae3"
       id="path44" />
    <path
       d="M 16.601562,5.296875 15.556641,7.1074219 A 6,6 0 0 1 16.195312,14 6,6 0 0 1 9.90625,16.892578 L 8.8652344,18.697266 A 8,8 0 0 0 17.927734,15 8,8 0 0 0 16.601562,5.296875 Z"
       style="fill:#d3dae3"
       id="path46" />
    <path
       d="m 10,7 0,5 2,0 0,-5 -2,0 z"
       style="fill:#315bef;fill-opacity:1"
       id="path48" />
    <path
       d="m 11,13 a 1,1 0 0 0 -1,1 1,1 0 0 0 1,1 1,1 0 0 0 1,-1 1,1 0 0 0 -1,-1 z"
       style="fill:#315bef;fill-opacity:1"
       id="path50" />
  </g>
</svg>
