<?xml version="1.0" encoding="UTF-8" standalone="no"?>
<svg
   xmlns:dc="http://purl.org/dc/elements/1.1/"
   xmlns:cc="http://creativecommons.org/ns#"
   xmlns:rdf="http://www.w3.org/1999/02/22-rdf-syntax-ns#"
   xmlns:svg="http://www.w3.org/2000/svg"
   xmlns="http://www.w3.org/2000/svg"
   xmlns:sodipodi="http://sodipodi.sourceforge.net/DTD/sodipodi-0.dtd"
   xmlns:inkscape="http://www.inkscape.org/namespaces/inkscape"
   width="22"
   height="22"
   version="1.1"
   viewBox="0 0 22 22"
   id="svg29"
   sodipodi:docname="update.svg"
   inkscape:version="0.92.4 (5da689c313, 2019-01-14)">
  <metadata
     id="metadata35">
    <rdf:RDF>
      <cc:Work
         rdf:about="">
        <dc:format>image/svg+xml</dc:format>
        <dc:type
           rdf:resource="http://purl.org/dc/dcmitype/StillImage" />
      </cc:Work>
    </rdf:RDF>
  </metadata>
  <defs
     id="defs33" />
  <sodipodi:namedview
     pagecolor="#ffffff"
     bordercolor="#666666"
     borderopacity="1"
     objecttolerance="10"
     gridtolerance="10"
     guidetolerance="10"
     inkscape:pageopacity="0"
     inkscape:pageshadow="2"
     inkscape:window-width="640"
     inkscape:window-height="480"
     id="namedview31"
     showgrid="false"
     inkscape:zoom="7.5853273"
     inkscape:cx="26.201759"
     inkscape:cy="16.883582"
     inkscape:current-layer="svg29" />
  <g
     id="layer1"
     transform="translate(0,-1030.3622)">
    <g
       id="update-none"
       transform="translate(46.529079,1.688616)">
      <rect
         width="22"
         height="22"
         x="-46.53"
         y="1028.67"
         style="opacity:0.001"
         id="rect2" />
      <path
         d="m -35.529081,1031.6736 c -4.4183,0 -8,3.5817 -8,8 0,4.418 3.5817,8 8,8 4.418,0 8,-3.582 8,-8 0,-4.4183 -3.582,-8 -8,-8 z m 3.385,4.582 c 0.083,0 0.165,0.032 0.228,0.096 l 0.955,0.9551 c 0.128,0.1274 0.128,0.3317 0,0.459 l -4.185,4.1852 -1.012,1.012 -0.057,0.057 c -0.095,0.095 -0.25,0.095 -0.3452,0 l -0.0567,-0.057 -0.9551,-0.955 -2.8847,-2.885 c -0.0955,-0.095 -0.0955,-0.25 0,-0.345 l 1.0683,-1.0688 c 0.0955,-0.096 0.2502,-0.096 0.3457,0 l 2.6567,2.6558 4.011,-4.0133 c 0.064,-0.064 0.148,-0.096 0.231,-0.096 z"
         style="fill:#d3dae3"
         id="path4" />
    </g>
    <g
       id="update-low"
       transform="translate(24,1.7382813e-5)">
      <rect
         width="22"
         height="22"
         x="0"
         y="1030.36"
         style="opacity:0.001"
         id="rect7" />
      <path
         d="m 11,1033.3622 c -4.4183,0 -8,3.5817 -8,8 0,4.418 3.5817,8 8,8 4.418,0 8,-3.582 8,-8 0,-4.4183 -3.582,-8 -8,-8 z m -1,3 2,0 0,5 3,0 -4,5 -4,-5 3,0 0,-5 z"
         style="fill:#d3dae3"
         id="path9" />
      <circle
         cx="20"
         cy="1048.362"
         r="2"
         style="fill:#315bef;fill-opacity:1"
         id="circle11" />
    </g>
    <g
       id="update-medium"
       transform="translate(48,1.7382813e-5)">
      <rect
         width="22"
         height="22"
         x="0"
         y="1030.36"
         style="opacity:0.00100002"
         id="rect14" />
      <path
         d="m 11,1033.3622 c -4.4183,0 -8,3.5817 -8,8 0,4.418 3.5817,8 8,8 4.418,0 8,-3.582 8,-8 0,-4.4183 -3.582,-8 -8,-8 z m -1,3 2,0 0,5 3,0 -4,5 -4,-5 3,0 0,-5 z"
         style="fill:#d3dae3"
         id="path16" />
      <circle
         cx="20"
         cy="1048.362"
         r="2"
         style="fill:#315bef;fill-opacity:1"
         id="circle18" />
    </g>
    <g
       id="update-high"
       transform="translate(72,1.7382813e-5)">
      <rect
         width="22"
         height="22"
         x="0"
         y="1030.36"
         style="opacity:0.00100002"
         id="rect21" />
      <path
         d="m 11,1033.3622 c -4.4183,0 -8,3.5817 -8,8 0,4.418 3.5817,8 8,8 4.418,0 8,-3.582 8,-8 0,-4.4183 -3.582,-8 -8,-8 z m -1,3 2,0 0,5 3,0 -4,5 -4,-5 3,0 0,-5 z"
         style="fill:#d3dae3"
         id="path23" />
      <circle
         cx="20"
         cy="1048.362"
         r="2"
         style="fill:#315bef;fill-opacity:1"
         id="circle25" />
    </g>
  </g>
</svg>
