<?xml version="1.0" encoding="UTF-8" standalone="no"?>
<svg
   xmlns:dc="http://purl.org/dc/elements/1.1/"
   xmlns:cc="http://creativecommons.org/ns#"
   xmlns:rdf="http://www.w3.org/1999/02/22-rdf-syntax-ns#"
   xmlns:svg="http://www.w3.org/2000/svg"
   xmlns="http://www.w3.org/2000/svg"
   xmlns:sodipodi="http://sodipodi.sourceforge.net/DTD/sodipodi-0.dtd"
   xmlns:inkscape="http://www.inkscape.org/namespaces/inkscape"
   width="22"
   height="22"
   version="1.1"
   viewBox="0 0 22 22"
   id="svg42"
   sodipodi:docname="quota.svg"
   inkscape:version="0.92.4 (5da689c313, 2019-01-14)">
  <metadata
     id="metadata48">
    <rdf:RDF>
      <cc:Work
         rdf:about="">
        <dc:format>image/svg+xml</dc:format>
        <dc:type
           rdf:resource="http://purl.org/dc/dcmitype/StillImage" />
      </cc:Work>
    </rdf:RDF>
  </metadata>
  <defs
     id="defs46" />
  <sodipodi:namedview
     pagecolor="#ffffff"
     bordercolor="#666666"
     borderopacity="1"
     objecttolerance="10"
     gridtolerance="10"
     guidetolerance="10"
     inkscape:pageopacity="0"
     inkscape:pageshadow="2"
     inkscape:window-width="640"
     inkscape:window-height="480"
     id="namedview44"
     showgrid="false"
     inkscape:zoom="10.727273"
     inkscape:cx="120.24232"
     inkscape:cy="12.993553"
     inkscape:current-layer="svg42" />
  <g
     id="quota"
     transform="translate(-326,-534.3622)">
    <rect
       width="22"
       height="22"
       x="326"
       y="534.36"
       style="opacity:0.00100002"
       id="rect2" />
    <g
       id="quota2">
      <path
         d="m 328.99219,537.3622 0,1 0,15 10.00781,0 -0.008,0 0,-1 0.008,0 0,-6 c -0.0773,-1.06658 1,-0.99588 1,-0.99588 l 3.99238,-0.004 1,0 0,-6 -6.99238,0 0,-2 -8.008,0 z"
         style="fill:#d3dae3"
         id="path4" />
      <path
         d="m 17,12 a 3,1 0 0 0 -3,1 l 0,5 a 3,1 0 0 0 3,1 3,1 0 0 0 3,-1 l 0,-5 a 3,1 0 0 0 -3,-1 z m 0,1 a 3,1 0 0 1 2,0.257812 l 0,0.486329 A 3,1 0 0 1 17,14 3,1 0 0 1 15,13.742188 l 0,-0.486329 A 3,1 0 0 1 17,13 Z m -2,1.744141 A 3,1 0 0 0 17,15 3,1 0 0 0 19,14.744141 l 0,1 A 3,1 0 0 1 17,16 3,1 0 0 1 15,15.742188 l 0,-0.998047 z m 0,2 A 3,1 0 0 0 17,17 3,1 0 0 0 19,16.744141 l 0,1 A 3,1 0 0 1 17,18 3,1 0 0 1 15,17.742188 l 0,-0.998047 z"
         transform="translate(326,534.3622)"
         style="fill:#d3dae3"
         id="path6" />
    </g>
  </g>
  <g
     id="quota-missing"
     transform="translate(-326,-534.3622)">
    <rect
       width="22"
       height="22"
       x="356"
       y="534.36"
       style="opacity:0.00100002"
       id="rect10" />
    <g
       id="quota-missing2"
       transform="translate(30.008,-0.010017)">
      <path
         d="m 328.99219,537.3622 0,1 0,15 9.99981,0 1.9e-4,0 0,-1 -1.9e-4,0 0,-5.98998 c -0.0773,-1.06657 1,-0.996 1,-0.996 l 4.00038,-0.004 0,-0.01 1,0 0,-6 -6.99238,0 -0.008,-2 0,0.01 0,-0.01 -8,0 z"
         style="opacity:0.3;fill:#d3dae3"
         id="path12" />
      <path
         d="m 17,12 a 3,1 0 0 0 -3,1 l 0,5 a 3,1 0 0 0 3,1 3,1 0 0 0 3,-1 l 0,-5 a 3,1 0 0 0 -3,-1 z m 0,1 a 3,1 0 0 1 2,0.257812 l 0,0.486329 A 3,1 0 0 1 17,14 3,1 0 0 1 15,13.742188 l 0,-0.486329 A 3,1 0 0 1 17,13 Z m -2,1.744141 A 3,1 0 0 0 17,15 3,1 0 0 0 19,14.744141 l 0,1 A 3,1 0 0 1 17,16 3,1 0 0 1 15,15.742188 l 0,-0.998047 z m 0,2 A 3,1 0 0 0 17,17 3,1 0 0 0 19,16.744141 l 0,1 A 3,1 0 0 1 17,18 3,1 0 0 1 15,17.742188 l 0,-0.998047 z"
         transform="translate(326,534.3622)"
         style="opacity:0.3;fill:#d3dae3"
         id="path14" />
    </g>
  </g>
  <g
     id="quota-low"
     transform="translate(-326,-534.3622)">
    <rect
       width="22"
       height="22"
       x="382"
       y="534.36"
       style="opacity:0.00100002"
       id="rect18" />
    <g
       id="quota-low2"
       transform="translate(56.008,-1.7e-5)">
      <path
         d="m 328.99219,537.3622 0,1 0,15 9.99981,0 1.9e-4,0 0,-1 -1.9e-4,0 0,-5.99998 c -0.11153,-1.0509 1,-0.99646 1,-0.99646 3.12223,-0.005 -0.31762,-0.004 4.00038,-0.004 l 0,-2e-5 1,0 0,-6 -6.99238,0 0,-2 -0.008,0.01 0,-0.01 -8,0 z"
         style="fill:#d3dae3"
         id="path20" />
      <path
         d="m 17,12 c -1.656854,0 -3,0.447715 -3,1 l 0,5 c 0,0.552285 1.343146,1 3,1 1.656854,0 3,-0.447715 3,-1 l 0,-5 c 0,-0.552285 -1.343146,-1 -3,-1 z m 0,1 c 0.739186,8.7e-4 1.451386,0.09268 2,0.257812 l 0,0.486329 C 18.450517,13.908567 17.738413,13.999666 17,14 16.260814,13.99913 15.548614,13.90732 15,13.742188 l 0,-0.486329 C 15.549483,13.091433 16.261587,13.000334 17,13 Z m -2,1.744141 c 0.549483,0.164426 1.261587,0.255525 2,0.255859 0.738413,-3.34e-4 1.450517,-0.09143 2,-0.255859 l 0,1 C 18.450517,15.908567 17.738413,15.999666 17,16 16.260814,15.99913 15.548614,15.90732 15,15.742188 Z"
         transform="translate(326,534.3622)"
         style="fill:#d3dae3"
         id="path22" />
    </g>
  </g>
  <g
     id="quota-high"
     transform="translate(-326,-534.3622)">
    <rect
       width="22"
       height="22"
       x="407"
       y="534.36"
       style="opacity:0.00100002"
       id="rect26" />
    <g
       id="quota-high2"
       transform="translate(81.008,-1.7e-5)">
      <path
         d="m 328.99219,537.3622 0,1 0,15 9.99981,0 1.9e-4,0 0,-1 -1.9e-4,0 0,-5.99998 c -0.12431,-1.06013 1,-0.99668 1,-0.99668 2.89547,-0.005 -0.25525,-0.003 4.00038,-0.003 l 0,-2e-5 1,0 0,-6 -6.99238,0 0,-2 -0.008,0.01 0,-0.01 -8,0 z"
         style="fill:#d3dae3"
         id="path28" />
      <path
         d="m 17,12 c -1.656854,0 -3,0.447715 -3,1 l 0,5 c 0,0.552285 1.343146,1 3,1 1.656854,0 3,-0.447715 3,-1 l 0,-5 c 0,-0.552285 -1.343146,-1 -3,-1 z m 0,1 c 0.739186,8.7e-4 1.451386,0.09268 2,0.257812 l 0,0.486329 C 18.450517,13.908567 17.738413,13.999666 17,14 16.260814,13.99913 15.548614,13.90732 15,13.742188 l 0,-0.486329 C 15.549483,13.091433 16.261587,13.000334 17,13 Z"
         transform="translate(326,534.3622)"
         style="fill:#315bef;fill-opacity:1"
         id="path30" />
    </g>
  </g>
  <g
     id="quota-critical"
     transform="translate(-326,-534.3622)">
    <rect
       width="22"
       height="22"
       x="432"
       y="534.36"
       style="opacity:0.00100002"
       id="rect34" />
    <g
       id="quota-critical2"
       transform="translate(106.008,-1.7e-5)">
      <path
         d="m 328.99219,537.3622 0,1 0,15 9.99981,0 1.9e-4,0 0,-1 -1.9e-4,0 0,-5.99998 c -0.11607,-1.05362 1,-1 1,-1 3.04714,-0.005 -0.29731,0 4.00038,0 l 0,-2e-5 1,0 0,-6 -6.99238,0 0,-2 -0.008,0.01 0,-0.01 -8,0 z"
         style="fill:#315bef;fill-opacity:1"
         id="path36" />
      <path
         d="m 17,12 c -1.656854,0 -3,0.447715 -3,1 l 0,5 c 0,0.552285 1.343146,1 3,1 1.656854,0 3,-0.447715 3,-1 l 0,-5 c 0,-0.552285 -1.343146,-1 -3,-1 z m 0,1 c 0.739186,8.7e-4 1.451386,0.09268 2,0.257812 l 0,0.486329 C 18.450517,13.908567 17.738413,13.999666 17,14 16.260814,13.99913 15.548614,13.90732 15,13.742188 l 0,-0.486329 C 15.549483,13.091433 16.261587,13.000334 17,13 Z"
         transform="translate(326,534.3622)"
         style="fill:#315bef;fill-opacity:1"
         id="path38" />
    </g>
  </g>
</svg>
