<?xml version="1.0" encoding="UTF-8" standalone="no"?>
<svg
   xmlns:dc="http://purl.org/dc/elements/1.1/"
   xmlns:cc="http://creativecommons.org/ns#"
   xmlns:rdf="http://www.w3.org/1999/02/22-rdf-syntax-ns#"
   xmlns:svg="http://www.w3.org/2000/svg"
   xmlns="http://www.w3.org/2000/svg"
   xmlns:sodipodi="http://sodipodi.sourceforge.net/DTD/sodipodi-0.dtd"
   xmlns:inkscape="http://www.inkscape.org/namespaces/inkscape"
   id="svg"
   width="100%"
   height="100%"
   version="1.1"
   viewBox="0 0 22 22"
   sodipodi:docname="user.svg"
   inkscape:version="0.92.4 (5da689c313, 2019-01-14)">
  <metadata
     id="metadata44">
    <rdf:RDF>
      <cc:Work
         rdf:about="">
        <dc:format>image/svg+xml</dc:format>
        <dc:type
           rdf:resource="http://purl.org/dc/dcmitype/StillImage" />
      </cc:Work>
    </rdf:RDF>
  </metadata>
  <defs
     id="defs42" />
  <sodipodi:namedview
     pagecolor="#ffffff"
     bordercolor="#666666"
     borderopacity="1"
     objecttolerance="10"
     gridtolerance="10"
     guidetolerance="10"
     inkscape:pageopacity="0"
     inkscape:pageshadow="2"
     inkscape:window-width="640"
     inkscape:window-height="480"
     id="namedview40"
     showgrid="false"
     inkscape:zoom="7.5853273"
     inkscape:cx="86.061767"
     inkscape:cy="3.7800108"
     inkscape:current-layer="svg" />
  <g
     id="user-busy"
     transform="translate(199,-1)">
    <rect
       width="22"
       height="22"
       x="1"
       y="1"
       style="fill:#d3dae3;fill-opacity:0"
       id="rect2" />
    <path
       d="m 12,4 c -1.662,0 -3,1.338 -3,3 0,1.662 1.338,3 3,3 1.662,0 3,-1.338 3,-3 0,-1.662 -1.338,-3 -3,-3 z m 0,1 c 1.108,0 2,0.892 2,2 0,1.108 -0.892,2 -2,2 -1.108,0 -2,-0.892 -2,-2 0,-1.108 0.892,-2 2,-2 z m 0,7 c -2.77,0 -5,0.891984 -5,2 l 0,5 0,1 1.2011733,0 7.5976537,0 L 17,20 l 0,-1 0,-5 c 0,-1.108016 -2.23,-2 -5,-2 z"
       style="fill:#d3dae3"
       id="path4" />
  </g>
  <g
     id="user-away-extended"
     transform="translate(159,-1)">
    <rect
       width="22"
       height="22"
       x="1"
       y="1"
       style="fill:#d3dae3;fill-opacity:0"
       id="rect7" />
    <path
       d="m 12,4 c -1.66199,0 -3,1.338 -3,3 0,1.662 1.33801,3 3,3 1.662,0 3,-1.338 3,-3 0,-1.662 -1.338,-3 -3,-3 z"
       style="fill:#ebb557"
       id="path9" />
    <path
       d="M 171 11 C 168.23001 11 166 11.89198 166 13 L 166 18 L 166 19 L 167.1875 19 L 174.8125 19 L 176 19 L 176 18 L 176 13 C 176 11.89198 173.77 11 171 11 z M 168.65625 14.34375 L 173.34375 14.34375 L 173.34375 15.65625 L 168.65625 15.65625 L 168.65625 14.34375 z"
       transform="translate(-159,1)"
       style="fill:#ebb557"
       id="path11" />
  </g>
  <g
     id="user-away"
     transform="translate(119,-1)">
    <rect
       width="22"
       height="22"
       x="1"
       y="1"
       style="fill:#d3dae3;fill-opacity:0"
       id="rect14" />
    <path
       d="m 12,4 c -1.662,0 -3,1.338 -3,3 0,1.662 1.338,3 3,3 1.662,0 3,-1.338 3,-3 0,-1.662 -1.338,-3 -3,-3 z m 0,8 c -2.77,0 -5,0.89198 -5,2 l 0,5 0,1 1.2011733,0 7.5976597,0 L 17,20 l 0,-1 0,-5 c 0,-1.10802 -2.23,-2 -5,-2 z"
       style="fill:#ebb557"
       id="path16" />
  </g>
  <g
     id="user-offline"
     transform="translate(79,-1)">
    <rect
       width="22"
       height="22"
       x="1"
       y="1"
       style="fill:#d3dae3;fill-opacity:0"
       id="rect19" />
    <path
       d="m 12,4 c -1.662,0 -3,1.338 -3,3 0,1.662 1.338,3 3,3 1.662,0 3,-1.338 3,-3 0,-1.662 -1.338,-3 -3,-3 z m 0,8 c -2.77,0 -5,0.89198 -5,2 l 0,5 0,1 1.20117,0 7.59766,0 1.20117,0 0,-1 0,-5 c 0,-1.10802 -2.23,-2 -5,-2 z"
       style="fill:#315bef;fill-opacity:1"
       id="path21" />
  </g>
  <g
     id="user-invisible"
     transform="translate(-1,-1)">
    <rect
       width="22"
       height="22"
       x="41"
       y="1"
       style="fill:#d3dae3;fill-opacity:0"
       id="rect24" />
    <path
       d="m 52,4 c -1.662,0 -3,1.338 -3,3 0,1.662 1.338,3 3,3 1.662,0 3,-1.338 3,-3 0,-1.662 -1.338,-3 -3,-3 z m 0,8 c -2.77,0 -5,0.89198 -5,2 l 0,5 0,1 1.20117,0 7.59766,0 1.20117,0 0,-1 0,-5 c 0,-1.10802 -2.23,-2 -5,-2 z"
       style="fill:#d3dae3;fill-opacity:0.3"
       id="path26" />
  </g>
  <g
     id="user-online"
     transform="translate(-1,39)">
    <rect
       width="22"
       height="22"
       x="1"
       y="-39"
       style="fill:#d3dae3;fill-opacity:0"
       id="rect29" />
    <path
       d="m 12,-36 c -1.662,0 -3,1.338 -3,3 0,1.662 1.338,3 3,3 1.662,0 3,-1.338 3,-3 0,-1.662 -1.338,-3 -3,-3 z m 0,8 c -2.77,0 -5,0.891984 -5,2 l 0,5 0,1 1.2011719,0 7.5976561,0 1.201172,0 0,-1 0,-5 c 0,-1.108016 -2.23,-2 -5,-2 z"
       style="fill:#d3dae3"
       id="path31" />
  </g>
  <g
     id="user-identity"
     transform="translate(-486.72644,-502.11926)">
    <rect
       width="22"
       height="22"
       x="721.73"
       y="502.12"
       style="opacity:0.01000001;fill:#fdbc4b;fill-opacity:0.00392157"
       id="rect34" />
    <path
       d="m 732.72644,505.11926 c -2.04554,0 -3.69232,1.64677 -3.69232,3.69232 0,2.04554 1.64678,3.69231 3.69232,3.69231 2.04553,0 3.69231,-1.64677 3.69231,-3.69231 0,-2.04555 -1.64678,-3.69232 -3.69231,-3.69232 z m 0,8.61539 c -3.40927,0 -6.15386,2.74461 -6.15386,6.15386 l 0,1.23077 12.30771,0 0,-1.23077 c 0,-3.40925 -2.74459,-6.15386 -6.15385,-6.15386 z"
       style="fill:#d3dae3"
       id="path36" />
  </g>
</svg>
