<?xml version="1.0" encoding="UTF-8" standalone="no"?>
<svg
   xmlns:dc="http://purl.org/dc/elements/1.1/"
   xmlns:cc="http://creativecommons.org/ns#"
   xmlns:rdf="http://www.w3.org/1999/02/22-rdf-syntax-ns#"
   xmlns:svg="http://www.w3.org/2000/svg"
   xmlns="http://www.w3.org/2000/svg"
   xmlns:sodipodi="http://sodipodi.sourceforge.net/DTD/sodipodi-0.dtd"
   xmlns:inkscape="http://www.inkscape.org/namespaces/inkscape"
   id="svg7384"
   width="22"
   height="22"
   version="1.1"
   style="enable-background:new"
   sodipodi:docname="audio.svg"
   inkscape:version="0.92.4 (5da689c313, 2019-01-14)">
  <metadata
     id="metadata25">
    <rdf:RDF>
      <cc:Work
         rdf:about="">
        <dc:format>image/svg+xml</dc:format>
        <dc:type
           rdf:resource="http://purl.org/dc/dcmitype/StillImage" />
      </cc:Work>
    </rdf:RDF>
  </metadata>
  <sodipodi:namedview
     pagecolor="#ffffff"
     bordercolor="#666666"
     borderopacity="1"
     objecttolerance="10"
     gridtolerance="10"
     guidetolerance="10"
     inkscape:pageopacity="0"
     inkscape:pageshadow="2"
     inkscape:window-width="640"
     inkscape:window-height="480"
     id="namedview23"
     showgrid="true"
     inkscape:zoom="21.454545"
     inkscape:cx="14.426124"
     inkscape:cy="11.237995"
     inkscape:current-layer="svg7384">
    <inkscape:grid
       type="xygrid"
       id="grid832" />
  </sodipodi:namedview>
  <defs
     id="defs8">
    <style
       id="current-color-scheme"
       type="text/css">
   .ColorScheme-Text { color:#d3dae3; } .ColorScheme-Highlight { color:#5294e2; } .ColorScheme-ButtonBackground { color:#d3dae3; }
  </style>
  </defs>
  <g
     id="audio-volume-low"
     transform="translate(-300.0004,419)">
    <path
       id="path4176"
       d="m 325.0004,-419 22,0 c 0,0 0,0 0,0 l 0,22 c 0,0 0,0 0,0 l -22,0 c 0,0 0,0 0,0 l 0,-22 c 0,0 0,0 0,0 z"
       style="opacity:0.001;fill:currentColor" />
    <path
       id="path4196"
       opacity="1"
       class="ColorScheme-Text"
       d="m 335.0004,-416 -5,5 -3,0 0,6 3,0 5,5 z"
       style="fill:currentColor" />
    <path
       id="path4194"
       opacity=".3"
       class="ColorScheme-Text"
       d="m 337.0004,-416 0,2 c 2.86838,0.84571 5,3.06286 5,6 0,2.93714 -2.13163,5.15429 -5,6 l 0,2 c 3.89455,-0.89143 7,-4.11429 7,-8 0,-3.88571 -3.10545,-7.10857 -7,-8 z"
       style="fill:currentColor" />
    <path
       id="path4178"
       opacity=".3"
       class="ColorScheme-Text"
       d="m 337.0004,-412 0,8 c 0,0 3.0002,-1 3,-4 -2e-4,-3 -3,-4 -3,-4 z"
       style="fill:currentColor" />
  </g>
  <g
     id="audio-volume-medium"
     transform="translate(-275.0004,419)">
    <path
       id="path4182"
       d="m 325.0004,-419 22,0 c 0,0 0,0 0,0 l 0,22 c 0,0 0,0 0,0 l -22,0 c 0,0 0,0 0,0 l 0,-22 c 0,0 0,0 0,0 z"
       style="opacity:0.001;fill:currentColor" />
    <path
       id="path4202"
       opacity="1"
       class="ColorScheme-Text"
       d="m 335.0004,-416 -5,5 -3,0 0,6 3,0 5,5 z"
       style="fill:currentColor" />
    <path
       id="path4200"
       opacity=".3"
       class="ColorScheme-Text"
       d="m 337.0004,-416 0,2 c 2.86838,0.84571 5,3.06286 5,6 0,2.93714 -2.13163,5.15429 -5,6 l 0,2 c 3.89455,-0.89143 7,-4.11429 7,-8 0,-3.88571 -3.10545,-7.10857 -7,-8 z"
       style="fill:currentColor" />
    <path
       id="path4184"
       opacity="1"
       class="ColorScheme-Text"
       d="m 337.0004,-412 0,8 c 0,0 3.0002,-1 3,-4 -2e-4,-3 -3,-4 -3,-4 z"
       style="fill:currentColor" />
  </g>
  <g
     id="audio-volume-high"
     transform="translate(-250.0004,419)">
    <path
       id="path4188"
       d="m 325.0004,-419 22,0 c 0,0 0,0 0,0 l 0,22 c 0,0 0,0 0,0 l -22,0 c 0,0 0,0 0,0 l 0,-22 c 0,0 0,0 0,0 z"
       style="opacity:0.001;fill:currentColor" />
    <path
       id="path4208"
       opacity="1"
       class="ColorScheme-Text"
       d="m 335.0004,-416 -5,5 -3,0 0,6 3,0 5,5 z"
       style="fill:currentColor" />
    <path
       id="path4206"
       opacity="1"
       class="ColorScheme-Text"
       d="m 337.0004,-416 0,2 c 2.86838,0.84571 5,3.06286 5,6 0,2.93714 -2.13163,5.15429 -5,6 l 0,2 c 3.89455,-0.89143 7,-4.11429 7,-8 0,-3.88571 -3.10545,-7.10857 -7,-8 z"
       style="fill:currentColor" />
    <path
       id="path4190"
       opacity="1"
       class="ColorScheme-Text"
       d="m 337.0004,-412 0,8 c 0,0 3.0002,-1 3,-4 -2e-4,-3 -3,-4 -3,-4 z"
       style="fill:currentColor" />
  </g>
  <g
     id="audio-volume-muted">
    <path
       style="opacity:0.00100002;fill:currentColor"
       d="m 0,0 h 22 c 0,0 0,0 0,0 v 22 c 0,0 0,0 0,0 H 0 c 0,0 0,0 0,0 V 0 c 0,0 0,0 0,0 z"
       id="rect4182"
       inkscape:connector-curvature="0" />
    <path
        class="ColorScheme-Text"
       id="path5105"
       d="M 10,3 5,8 H 2 v 6 h 3 l 5,5 z m 2,0 v 2 c 2.86838,0.84571 5,3.06286 5,6 0,0.344287 -0.03547,0.676548 -0.0918,1 h 2.013672 C 18.96778,11.6716 19,11.339643 19,11 19,7.11429 15.89455,3.89143 12,3 Z m 0,4 v 5 h 2.876953 C 14.953935,11.694179 15.000024,11.362442 15,11 14.9998,8 12,7 12,7 Z"
       style="opacity:0.3;fill:currentColor"
       inkscape:connector-curvature="0" />
    <path
       inkscape:connector-curvature="0"
       style="color:#5294e2;fill:#da4453;fill-opacity:1"
       class="ColorScheme-Highlight"
       d="m 13.00003,13 v 1.199219 c 0,0.0926 0.0311,0.176228 0.0488,0.263672 L 14.58594,16 13.04883,17.537109 c -0.0184,0.08759 -0.0488,0.172582 -0.0488,0.263672 V 19 h 1.19922 c 0.0904,0 0.17565,-0.03068 0.26367,-0.04883 l 1.53711,-1.53711 1.53711,1.53711 C 17.62514,18.96932 17.71045,19 17.80081,19 h 1.19922 v -1.199219 c 0,-0.09109 -0.0304,-0.176081 -0.0488,-0.263672 L 17.41409,16 18.9512,14.462891 C 18.9689,14.375451 19,14.291819 19,14.199219 V 13 h -1.19922 c -0.0926,0 -0.17623,0.0311 -0.26367,0.04883 L 16,14.58594 14.46289,13.04883 C 14.37549,13.0311 14.29181,13 14.19922,13 Z"
       id="path1484" />
  </g>
</svg>
