<?xml version="1.0" encoding="UTF-8" standalone="no"?>
<svg
   xmlns:dc="http://purl.org/dc/elements/1.1/"
   xmlns:cc="http://creativecommons.org/ns#"
   xmlns:rdf="http://www.w3.org/1999/02/22-rdf-syntax-ns#"
   xmlns:svg="http://www.w3.org/2000/svg"
   xmlns="http://www.w3.org/2000/svg"
   xmlns:sodipodi="http://sodipodi.sourceforge.net/DTD/sodipodi-0.dtd"
   xmlns:inkscape="http://www.inkscape.org/namespaces/inkscape"
   id="svg4147"
   width="22"
   height="22"
   version="1.1"
   viewBox="0 0 22 22"
   sodipodi:docname="korgac.svg"
   inkscape:version="0.92.4 (5da689c313, 2019-01-14)">
  <metadata
     id="metadata10">
    <rdf:RDF>
      <cc:Work
         rdf:about="">
        <dc:format>image/svg+xml</dc:format>
        <dc:type
           rdf:resource="http://purl.org/dc/dcmitype/StillImage" />
      </cc:Work>
    </rdf:RDF>
  </metadata>
  <sodipodi:namedview
     pagecolor="#ffffff"
     bordercolor="#666666"
     borderopacity="1"
     objecttolerance="10"
     gridtolerance="10"
     guidetolerance="10"
     inkscape:pageopacity="0"
     inkscape:pageshadow="2"
     inkscape:window-width="640"
     inkscape:window-height="480"
     id="namedview8"
     showgrid="true"
     showguides="true"
     inkscape:guide-bbox="true"
     inkscape:zoom="22.627417"
     inkscape:cx="2.8546823"
     inkscape:cy="11.573075"
     inkscape:current-layer="svg4147">
    <inkscape:grid
       type="xygrid"
       id="grid817" />
    <sodipodi:guide
       position="3,16"
       orientation="1,0"
       id="guide819"
       inkscape:locked="false" />
    <sodipodi:guide
       position="8,19"
       orientation="0,1"
       id="guide821"
       inkscape:locked="false" />
    <sodipodi:guide
       position="4,3"
       orientation="0,1"
       id="guide823"
       inkscape:locked="false" />
    <sodipodi:guide
       position="19,8"
       orientation="1,0"
       id="guide825"
       inkscape:locked="false" />
  </sodipodi:namedview>
  <defs
     id="defs10">
    <style
       id="current-color-scheme"
       type="text/css">
   .ColorScheme-Text { color:#d3dae3; } .ColorScheme-Highlight { color:#5294e2; } .ColorScheme-ButtonBackground { color:#d3dae3; }
  </style>
  </defs>
  <path
     inkscape:connector-curvature="0"
     style="color:#d3dae3;opacity:1;fill:currentColor;fill-opacity:1;stroke:none"
     d="m -11,3 c -1.541295,0 -2.797164,1.1661805 -2.966797,2.6621094 C -16.351628,6.7755664 -18,9.185204 -18,12 c 0,3.877997 3.122003,7 7,7 3.87799,0 7,-3.122003 7,-7 C -4,9.185204 -5.648373,6.7755664 -8.033203,5.6621094 -8.202836,4.1661805 -9.458705,3 -11,3 Z m -4.125,0.070312 c -1.663824,0.8523879 -3.019141,2.2022996 -3.875,3.859375 v 0.1230469 l 0.921875,0.3046875 c 0.754331,-1.4434856 1.933448,-2.6178755 3.382812,-3.3691407 l -0.30664,-0.9179687 z m 8.126953,0 -0.306641,0.9179687 c 1.44936,0.7512718 2.628473,1.9256618 3.382813,3.3691407 L -3,7.0527344 V 6.9296875 C -3.85586,5.2726187 -5.211182,3.9226938 -6.875,3.0703125 Z M -11,7 c 2.769992,0 5,2.241238 5,5 h -5 z"
     class="ColorScheme-Text"
     id="rect4120-4-7" />
  <g
     id="korgac">
    <rect
       id="rect3009"
       class="ColorScheme-Text"
       width="22"
       height="22"
       x="0"
       y="0"
       style="fill:#d3dae3;fill-opacity:0;stroke:none" />
    <g
       id="g1082">
      <path
          class="ColorScheme-Text"
         style="opacity:1;fill:currentColor;fill-opacity:1;stroke:none"
         d="M 7 3 L 7 4 L 5 4 C 3.892 4 3 4.892 3 6 L 3 17 C 3 18.108 3.892 19 5 19 L 17 19 C 18.108 19 19 18.108 19 17 L 19 6 C 19 4.892 18.108 4 17 4 L 15 4 L 15 3 L 13 3 L 13 4 L 9 4 L 9 3 L 7 3 z M 6 6 L 7 6 L 7 7 L 9 7 L 9 6 L 13 6 L 13 7 L 15 7 L 15 6 L 16 6 C 16.554 6 17 6.446 17 7 L 17 9 L 5 9 L 5 7 C 5 6.446 5.446 6 6 6 z M 5 10 L 17 10 L 17 16 C 17 16.554 16.554 17 16 17 L 6 17 C 5.446 17 5 16.554 5 16 L 5 10 z M 6 11 L 6 12 L 7 12 L 7 11 L 6 11 z M 8 11 L 8 12 L 16 12 L 16 11 L 8 11 z M 6 13 L 6 14 L 7 14 L 7 13 L 6 13 z M 8 13 L 8 14 L 13 14 L 13 13 L 8 13 z M 6 15 L 6 16 L 7 16 L 7 15 L 6 15 z M 8 15 L 8 16 L 15 16 L 15 15 L 8 15 z "
         id="rect835" />
    </g>
  </g>
</svg>
