<?xml version="1.0" encoding="UTF-8" standalone="no"?>
<svg
   xmlns:dc="http://purl.org/dc/elements/1.1/"
   xmlns:cc="http://creativecommons.org/ns#"
   xmlns:rdf="http://www.w3.org/1999/02/22-rdf-syntax-ns#"
   xmlns:svg="http://www.w3.org/2000/svg"
   xmlns="http://www.w3.org/2000/svg"
   xmlns:sodipodi="http://sodipodi.sourceforge.net/DTD/sodipodi-0.dtd"
   xmlns:inkscape="http://www.inkscape.org/namespaces/inkscape"
   id="svg11324"
   width="15.344"
   height="23"
   version="1"
   sodipodi:docname="pager.svg"
   inkscape:version="0.92.4 (5da689c313, 2019-01-14)">
  <metadata
     id="metadata35">
    <rdf:RDF>
      <cc:Work
         rdf:about="">
        <dc:format>image/svg+xml</dc:format>
        <dc:type
           rdf:resource="http://purl.org/dc/dcmitype/StillImage" />
      </cc:Work>
    </rdf:RDF>
  </metadata>
  <defs
     id="defs33" />
  <sodipodi:namedview
     pagecolor="#ffffff"
     bordercolor="#666666"
     borderopacity="1"
     objecttolerance="10"
     gridtolerance="10"
     guidetolerance="10"
     inkscape:pageopacity="0"
     inkscape:pageshadow="2"
     inkscape:window-width="640"
     inkscape:window-height="480"
     id="namedview31"
     showgrid="false"
     inkscape:zoom="58.044244"
     inkscape:cx="7.5631184"
     inkscape:cy="5.5033552"
     inkscape:current-layer="svg11324" />
  <path
     id="normal-left"
     d="m 9.5e-6,1 0,4.999999 1,0 0,-4.999999 -1,0 z"
     style="opacity:0.07;fill:#ffffff;fill-opacity:1;stroke:none" />
  <path
     id="normal-right"
     d="m 13.000009,1 0,4.999999 -1,0 0,-4.999999 1,0 z"
     style="opacity:0.07;fill:#ffffff;fill-opacity:1;stroke:none" />
  <rect
     id="normal-bottom"
     width="11"
     height="1"
     x="1"
     y="6"
     style="opacity:0.07;fill:#ffffff;fill-opacity:1;stroke:none" />
  <path
     id="normal-top"
     d="m 1.0000095,0 0,1 10.9999735,0 0,-1 -10.9999735,0 z"
     style="opacity:0.07;fill:#ffffff;fill-opacity:1;stroke:none" />
  <path
     id="hover-left"
     d="m 9.5e-6,9.000001 0,4.999999 1,0 0,-4.999999 -1,0 z"
     style="opacity:1;fill:#315bef;fill-opacity:1;stroke:none" />
  <path
     id="hover-right"
     d="m 13.000009,9.000001 0,4.999999 -1,0 0,-4.999999 1,0 z"
     style="opacity:1;fill:#315bef;fill-opacity:1;stroke:none" />
  <path
     id="hover-top"
     d="m 1.0000095,8 0,0.998752 10.9999785,0 0,-0.998752 -10.9999785,0 z"
     style="opacity:1;fill:#315bef;fill-opacity:1;stroke:none" />
  <path
     id="active-left"
     d="m 0,17 0,4.999999 1,0 L 1,17 0,17 z"
     style="opacity:1;fill:#315bef;fill-opacity:1;stroke:none" />
  <path
     id="active-right"
     d="m 12.999999,17 0,4.999999 -1,0 0,-4.999999 1,0 z"
     style="opacity:1;fill:#315bef;fill-opacity:1;stroke:none" />
  <rect
     id="active-bottom"
     width="11"
     height="1.001"
     x="1"
     y="22"
     style="opacity:1;fill:#315bef;fill-opacity:1;stroke:none" />
  <path
     id="active-top"
     d="m 1,16 0,1 10.999977,0 0,-1 L 1,16 z"
     style="opacity:1;fill:#315bef;fill-opacity:1;stroke:none" />
  <rect
     id="normal-center"
     width="11"
     height="5"
     x="1"
     y="-6"
     transform="scale(1,-1)"
     style="opacity:0.07;fill:#ffffff;fill-opacity:1;stroke:none" />
  <rect
     id="active-center"
     width="11"
     height="5"
     x="1"
     y="-22"
     transform="scale(1,-1)"
     style="opacity:1;fill:#315bef;fill-opacity:1;stroke:none" />
  <rect
     id="hover-center"
     width="11"
     height="5"
     x="1"
     y="-14"
     transform="scale(1,-1)"
     style="opacity:1;fill:#315bef;fill-opacity:1;stroke:none" />
  <g
     id="hover-bottom"
     transform="matrix(2.1999957,0,0,0.99875155,-1.1999862,-2.446941)">
    <rect
       id="rect3076"
       width="5"
       height="1.001"
       x="1"
       y="16.47"
       style="opacity:1;fill:#315bef;fill-opacity:1;stroke:none" />
  </g>
  <path
     id="hover-bottomleft"
     d="m 9.5e-6,14 c 0,0.552285 0.4477153,1 1,1 l 0,-1 -1,0 z"
     style="opacity:1;color:#000000;fill:#315bef;fill-opacity:1;fill-rule:nonzero;stroke:none;stroke-width:1px;marker:none;visibility:visible;display:inline;overflow:visible;enable-background:accumulate" />
  <path
     id="hover-topleft"
     d="m 9.5e-6,9 c 0,-0.552285 0.4477153,-1 1,-1 l 0,1 -1,0 z"
     style="opacity:1;color:#000000;fill:#315bef;fill-opacity:1;fill-rule:nonzero;stroke:none;stroke-width:1px;marker:none;visibility:visible;display:inline;overflow:visible;enable-background:accumulate" />
  <path
     id="hover-topright"
     d="m 13.000009,9 c 0,-0.552285 -0.447715,-1 -1,-1 l 0,1 1,0 z"
     style="opacity:1;color:#000000;fill:#315bef;fill-opacity:1;fill-rule:nonzero;stroke:none;stroke-width:1px;marker:none;visibility:visible;display:inline;overflow:visible;enable-background:accumulate" />
  <path
     id="hover-bottomright"
     d="m 13.000009,14 c 0,0.552285 -0.447715,1 -1,1 l 0,-1 1,0 z"
     style="opacity:1;color:#000000;fill:#315bef;fill-opacity:1;fill-rule:nonzero;stroke:none;stroke-width:1px;marker:none;visibility:visible;display:inline;overflow:visible;enable-background:accumulate" />
  <path
     id="normal-bottomleft"
     d="m 9.5e-6,6 c 0,0.552285 0.4477153,1 1,1 l 0,-1 -1,0 z"
     style="opacity:0.07;color:#000000;fill:#ffffff;fill-opacity:1;fill-rule:nonzero;stroke:none;stroke-width:1px;marker:none;visibility:visible;display:inline;overflow:visible;enable-background:accumulate" />
  <path
     id="normal-topleft"
     d="m 9.5e-6,1 c 0,-0.552285 0.4477153,-1 1,-1 l 0,1 -1,0 z"
     style="opacity:0.07;color:#000000;fill:#ffffff;fill-opacity:1;fill-rule:nonzero;stroke:none;stroke-width:1px;marker:none;visibility:visible;display:inline;overflow:visible;enable-background:accumulate" />
  <path
     id="normal-topright"
     d="m 13.000009,1 c 0,-0.552285 -0.447715,-1 -1,-1 l 0,1 1,0 z"
     style="opacity:0.07;color:#000000;fill:#ffffff;fill-opacity:1;fill-rule:nonzero;stroke:none;stroke-width:1px;marker:none;visibility:visible;display:inline;overflow:visible;enable-background:accumulate" />
  <path
     id="normal-bottomright"
     d="m 13.000009,6 c 0,0.552285 -0.447715,1 -1,1 l 0,-1 1,0 z"
     style="opacity:0.07;color:#000000;fill:#ffffff;fill-opacity:1;fill-rule:nonzero;stroke:none;stroke-width:1px;marker:none;visibility:visible;display:inline;overflow:visible;enable-background:accumulate" />
  <path
     id="active-bottomleft"
     d="m 9.5e-6,22 c 0,0.552285 0.4477153,1 1,1 l 0,-1 -1,0 z"
     style="opacity:1;color:#000000;fill:#315bef;fill-opacity:1;fill-rule:nonzero;stroke:none;stroke-width:1px;marker:none;visibility:visible;display:inline;overflow:visible;enable-background:accumulate" />
  <path
     id="active-topleft"
     d="m 9.5e-6,17 c 0,-0.552285 0.4477153,-1 1,-1 l 0,1 -1,0 z"
     style="opacity:1;color:#000000;fill:#315bef;fill-opacity:1;fill-rule:nonzero;stroke:none;stroke-width:1px;marker:none;visibility:visible;display:inline;overflow:visible;enable-background:accumulate" />
  <path
     id="active-topright"
     d="m 13.000009,17 c 0,-0.552285 -0.447715,-1 -1,-1 l 0,1 1,0 z"
     style="opacity:1;color:#000000;fill:#315bef;fill-opacity:1;fill-rule:nonzero;stroke:none;stroke-width:1px;marker:none;visibility:visible;display:inline;overflow:visible;enable-background:accumulate" />
  <path
     id="active-bottomright"
     d="m 13.000009,22 c 0,0.552285 -0.447715,1 -1,1 l 0,-1 1,0 z"
     style="opacity:1;color:#000000;fill:#315bef;fill-opacity:1;fill-rule:nonzero;stroke:none;stroke-width:1px;marker:none;visibility:visible;display:inline;overflow:visible;enable-background:accumulate" />
</svg>
